# xmcd
#
# Track frame offsets:
#	150
#	15512
#	30430
#
# Disc length: 633 seconds
#
# Revision: 2
# Processed by: cddbd v1.4PL0 Copyright (c) Steve Scherf et al.
# Submitted via: audiograbber 1.80
#
DISCID=13027703
DTITLE=Iron Maiden - Be quick or be dead
DYEAR=1900
DGENRE=
TTITLE0=Be quick or be dead
TTITLE1=Nodding donkey blues
TTITLE2=Space station No.5
EXTD=
EXTT0=
EXTT1=
EXTT2=
PLAYORDER=
